<svg xmlns="http://www.w3.org/2000/svg" xmlns:xlink="http://www.w3.org/1999/xlink" version="1.1" id="Your_Icon" x="0px" y="0px" width="100px" height="100px" viewBox="0 0 100 100" enable-background="new 0 0 100 100" xml:space="preserve">
<g>
	<g>
		<g>
			<g>
			</g>
		</g>
		<g>
		</g>
	</g>
</g>
<path d="M95.113,33.77l-10.998-6.123c0,0-0.001-0.001-0.001-0.001l6.547-10.755L80.012,19.7c-5.005-6.032-13.211-8.979-21.288-6.848  c-11.096,2.927-17.72,14.295-14.793,25.392c0.033,0.126,0.082,0.244,0.117,0.368L7.389,36.093  c-0.859,12.511,9.025,23.904,23.639,29.038L4.887,78.957c13.844,3.181,31.616,2.777,50.183-1.908v7.752l-2.52,1.303  c-1.226,0.634-1.707,2.143-1.072,3.369c0.634,1.227,2.143,1.705,3.369,1.072l3-1.551l9.53,2.636  c0.224,0.063,0.447,0.092,0.668,0.092c1.097,0,2.103-0.727,2.408-1.834c0.368-1.331-0.412-2.708-1.742-3.076l-8.642-2.391v-8.858  c16.383-6.021,26.676-22.164,25.559-39.292L95.113,33.77z M65.876,19.979c3.221-0.85,6.521,1.072,7.372,4.293  c0.14,0.531,0.197,1.063,0.193,1.587c-1.703-1.754-4.274-2.567-6.808-1.899c-2.259,0.596-3.961,2.234-4.741,4.26  c-0.121-0.279-0.229-0.567-0.31-0.871C60.731,24.128,62.654,20.828,65.876,19.979z"/>
</svg>