<svg xmlns="http://www.w3.org/2000/svg" xmlns:xlink="http://www.w3.org/1999/xlink" version="1.1" id="Layer_1" x="0px" y="0px" width="100px" height="100px" viewBox="0 0 100 100" enable-background="new 0 0 100 100" xml:space="preserve">
<circle cx="58.972" cy="27.77" r="6.594"/>
<path d="M77.001,56.149l-9.509-4.205l-6.048-12.45c-0.161-0.426-0.357-0.833-0.591-1.218l-0.146-0.293  c-0.358-0.738-0.923-1.29-1.554-1.598c-0.726-0.55-1.57-0.956-2.508-1.164c-0.549-0.12-1.098-0.159-1.64-0.137  c-0.482-0.015-0.994,0.057-1.511,0.24c-0.83,0.236-1.612,0.632-2.31,1.167l-14.202,7.511c-0.255,0.133-0.484,0.294-0.699,0.462  c-0.695,0.375-1.227,1.037-1.383,1.873l-2.218,11.756c-0.277,1.47,0.689,2.886,2.161,3.164c1.471,0.278,2.887-0.69,3.164-2.16  l2.081-11.029l7.627-4.035l-3.355,15.239c-0.102,0.459-0.141,0.899-0.129,1.317l-2.544,15.892c-0.058,0.078-0.118,0.143-0.171,0.224  l-10.01,15.433c-1.251,1.929-1.009,4.309,0.54,5.314c1.549,1.003,3.818,0.255,5.072-1.675l10.012-15.433  c0.315-0.488,0.535-1.005,0.664-1.519c0.119-0.272,0.216-0.558,0.265-0.861l1.889-11.799c0.232,0.066,0.462,0.122,0.696,0.174  c0.789,0.177,1.479,0.447,2.092,0.726l10.447,12.477l3.229,15.398c0.411,1.953,2.211,3.233,4.018,2.856  c1.805-0.383,2.94-2.274,2.529-4.231L69.68,77.929c-0.13-0.617-0.409-1.156-0.774-1.607c-0.122-0.215-0.266-0.424-0.433-0.622  L57.578,62.691l2.974-13.487l2.589,5.326c0.077,0.16,0.168,0.306,0.266,0.451c0.176,0.731,0.64,1.364,1.347,1.677l10.055,4.449  c1.259,0.56,2.769-0.099,3.374-1.47C78.788,58.267,78.261,56.708,77.001,56.149z"/>
<g>
	<path d="M41.78,22.843v-1.281l5.929-6.806c-0.672,0.034-1.266,0.053-1.78,0.053h-3.798v-1.281h7.612v1.043L44.7,20.483   l-0.973,1.079c0.707-0.052,1.372-0.078,1.991-0.078h4.305v1.359H41.78z"/>
</g>
<g>
	<path d="M29.959,16.934v-1.281l5.929-6.807c-0.672,0.035-1.265,0.053-1.781,0.053h-3.797V7.618h7.613v1.044l-5.043,5.912   l-0.974,1.079c0.708-0.053,1.372-0.079,1.992-0.079h4.306v1.359H29.959z"/>
</g>
<g>
	<path d="M18.139,11.023V9.742l5.929-6.806c-0.671,0.035-1.264,0.053-1.78,0.053h-3.796V1.708h7.612v1.044l-5.043,5.912   l-0.974,1.078c0.707-0.052,1.372-0.078,1.992-0.078h4.305v1.359H18.139z"/>
</g>
</svg>