<svg xmlns="http://www.w3.org/2000/svg" xmlns:xlink="http://www.w3.org/1999/xlink" version="1.1" id="Layer_1" x="0px" y="0px" width="96px" height="96px" viewBox="0 0 96 96" enable-background="new 0 0 96 96" xml:space="preserve">
<path d="M0.8,30.332C0.3,30.712,0,31.304,0,31.928v48c0,0.893,0.592,1.68,1.452,1.92L28,89.428V37.272L2.552,30  C1.948,29.836,1.3,29.956,0.8,30.332z"/>
<path d="M60.068,25.924c0,2.209-1.791,4-4,4s-4-1.791-4-4s1.791-4,4-4S60.068,23.715,60.068,25.924z"/>
<path d="M56.068,6.068c-11.192,0-19.957,8.744-19.957,19.908c0,16.864,18.012,30.127,18.785,30.68  c0.348,0.256,0.76,0.384,1.172,0.384s0.824-0.124,1.172-0.384c0.768-0.557,18.783-13.82,18.783-30.68  C76.023,14.812,67.252,6.068,56.068,6.068z M56.068,33.924c-4.412,0-8-3.584-8-8s3.588-8,8-8s8,3.584,8,8  C64.068,30.336,60.477,33.924,56.068,33.924z"/>
<path d="M56.068,61.04c-1.276,0-2.496-0.408-3.524-1.147c-1.655-1.197-13.5-10.164-18.352-23.077l-2.188,0.552v52.116l28-7V59.576  c-0.16,0.124-0.32,0.244-0.416,0.313C58.561,60.641,57.336,61.04,56.068,61.04z"/>
<path d="M94.484,37.992l-15.656-3.916c-2.796,9.908-10,17.8-14.828,22.172v26.244l29.516,7.384c0.156,0.04,0.32,0.056,0.484,0.056  c0.436,0,0.876-0.147,1.232-0.42C95.721,89.124,96,88.557,96,87.928v-48C96,39.012,95.38,38.208,94.484,37.992z"/>
</svg>